<svg width="338" height="116" viewBox="0 0 338 116" fill="none" xmlns="http://www.w3.org/2000/svg">
<path d="M83.0715 115.472H81.4249V99.0996H87.5309C89.1775 99.0996 90.4742 99.5241 91.4304 100.368C92.382 101.213 92.8578 102.369 92.8578 103.834C92.8578 105.01 92.5639 105.989 91.9762 106.782C91.3885 107.575 90.5722 108.116 89.518 108.405L93.0164 115.472H91.1879L87.848 108.681H83.0669V115.472H83.0715ZM83.0715 100.588V107.197H87.5775C88.7063 107.197 89.5879 106.899 90.2177 106.306C90.852 105.714 91.1646 104.902 91.1646 103.881C91.1646 102.859 90.838 101.996 90.1803 101.432C89.5226 100.867 88.641 100.588 87.5262 100.588H83.0669H83.0715Z" fill="#111111"/>
<path d="M110.443 115.472H100.634V99.0996H110.42V100.611H101.249L102.28 99.72V106.512H109.664V108H102.28V114.861L101.249 113.97H110.443V115.482V115.472Z" fill="#111111"/>
<path d="M122.856 115.472L116.591 99.0996H118.35L122.716 110.486C122.884 110.929 123.051 111.381 123.219 111.848C123.387 112.314 123.565 112.837 123.746 113.415C123.914 112.823 124.092 112.258 124.283 111.722C124.474 111.19 124.628 110.77 124.749 110.463L129.092 99.0996H130.785L124.567 115.472H122.851H122.856Z" fill="#111111"/>
<path d="M151.533 107.286C151.533 108.947 151.202 110.411 150.54 111.676C149.877 112.94 148.958 113.933 147.783 114.661C146.608 115.384 145.259 115.748 143.734 115.748C142.209 115.748 140.856 115.384 139.676 114.661C138.496 113.938 137.577 112.944 136.919 111.676C136.262 110.411 135.935 108.947 135.935 107.286C135.935 105.626 136.266 104.156 136.929 102.883C137.591 101.609 138.51 100.611 139.685 99.8881C140.861 99.1651 142.209 98.8013 143.734 98.8013C145.259 98.8013 146.626 99.1651 147.792 99.8881C148.958 100.611 149.873 101.609 150.535 102.883C151.197 104.156 151.529 105.626 151.529 107.286H151.533ZM149.84 107.286C149.84 105.915 149.579 104.716 149.061 103.685C148.543 102.654 147.83 101.852 146.925 101.273C146.015 100.695 144.956 100.406 143.734 100.406C142.512 100.406 141.472 100.695 140.558 101.273C139.643 101.852 138.93 102.654 138.421 103.685C137.908 104.716 137.656 105.915 137.656 107.286C137.656 108.658 137.913 109.838 138.421 110.878C138.93 111.913 139.643 112.725 140.558 113.303C141.472 113.882 142.531 114.171 143.734 114.171C144.938 114.171 146.015 113.882 146.925 113.303C147.83 112.725 148.543 111.918 149.061 110.878C149.579 109.842 149.84 108.644 149.84 107.286Z" fill="#111111"/>
<path d="M160.746 99.0996V115.472H159.099V99.0996H160.746ZM159.374 115.472V113.961H168.27V115.472H159.374Z" fill="#111111"/>
<path d="M174.511 109.777V99.0996H176.157V109.712C176.157 111.144 176.54 112.24 177.3 113.005C178.061 113.765 179.161 114.148 180.593 114.148C182.025 114.148 183.056 113.765 183.817 112.991C184.577 112.221 184.959 111.125 184.959 109.712V99.0996H186.606V109.777C186.606 111.013 186.368 112.076 185.888 112.967C185.407 113.858 184.717 114.544 183.817 115.024C182.916 115.505 181.843 115.743 180.593 115.743C179.343 115.743 178.242 115.505 177.333 115.034C176.423 114.563 175.728 113.877 175.238 112.977C174.749 112.076 174.506 111.008 174.506 109.777H174.511Z" fill="#111111"/>
<path d="M193.328 100.611V99.0996H205.059V100.611H193.328ZM200.007 99.832V115.472H198.361V99.832H200.007Z" fill="#111111"/>
<path d="M213.544 99.0996V115.472H211.897V99.0996H213.544Z" fill="#111111"/>
<path d="M236.68 107.286C236.68 108.947 236.349 110.411 235.687 111.676C235.025 112.94 234.106 113.933 232.93 114.661C231.755 115.384 230.407 115.748 228.881 115.748C227.356 115.748 226.003 115.384 224.823 114.661C223.643 113.938 222.724 112.944 222.066 111.676C221.409 110.411 221.082 108.947 221.082 107.286C221.082 105.626 221.413 104.156 222.076 102.883C222.738 101.609 223.657 100.611 224.832 99.8881C226.008 99.1651 227.356 98.8013 228.881 98.8013C230.407 98.8013 231.773 99.1651 232.939 99.8881C234.106 100.611 235.02 101.609 235.682 102.883C236.345 104.156 236.676 105.626 236.676 107.286H236.68ZM234.992 107.286C234.992 105.915 234.731 104.716 234.213 103.685C233.695 102.654 232.981 101.852 232.077 101.273C231.167 100.695 230.108 100.406 228.886 100.406C227.664 100.406 226.624 100.695 225.709 101.273C224.795 101.852 224.081 102.654 223.573 103.685C223.06 104.716 222.808 105.915 222.808 107.286C222.808 108.658 223.065 109.838 223.573 110.878C224.081 111.913 224.795 112.725 225.709 113.303C226.624 113.882 227.682 114.171 228.886 114.171C230.089 114.171 231.167 113.882 232.077 113.303C232.981 112.725 233.695 111.918 234.213 110.878C234.731 109.842 234.992 108.644 234.992 107.286Z" fill="#111111"/>
<path d="M245.898 115.472H244.251V99.0996H245.921L255.32 113.322H254.933V99.0996H256.556V115.472H254.933L245.511 101.25H245.898V115.472Z" fill="#111111"/>
<path d="M255.763 74.8571C254.443 74.8571 253.375 73.7889 253.375 72.4688V38.3521C253.361 19.8105 238.005 4.72522 219.146 4.72522C200.288 4.72522 184.918 19.8244 184.918 38.3801V72.4968C184.918 73.8169 183.85 74.8898 182.53 74.8898C181.209 74.8898 180.137 73.8169 180.137 72.4968V38.3801C180.137 17.2169 197.638 0 219.146 0C240.655 0 258.138 17.203 258.152 38.3521V72.4688C258.156 73.7889 257.088 74.8618 255.768 74.8618L255.763 74.8571Z" fill="#111111"/>
<path d="M147.55 73.3312C146.542 74.3388 144.91 74.3388 143.902 73.3312L106.394 35.8234L87.7828 52.322V72.5056C87.7828 73.821 86.7193 74.8845 85.4039 74.8845C84.0885 74.8845 83.025 73.821 83.025 72.5056V3.01272C83.025 1.69731 84.0885 0.633789 85.4039 0.633789C86.7193 0.633789 87.7828 1.69731 87.7828 3.01272V45.9035L136.752 2.4763C137.745 1.59469 139.261 1.68798 140.143 2.68154C141.024 3.67509 140.931 5.19108 139.937 6.07269L110.257 32.3996L147.545 69.6882C148.553 70.6957 148.553 72.3283 147.545 73.3359L147.55 73.3312Z" fill="#111111"/>
<path d="M167.104 3.01272C167.104 1.69887 166.039 0.633789 164.725 0.633789C163.411 0.633789 162.346 1.69887 162.346 3.01272V72.5102C162.346 73.8241 163.411 74.8892 164.725 74.8892C166.039 74.8892 167.104 73.8241 167.104 72.5102V3.01272Z" fill="#111111"/>
<path d="M50.7692 74.8904H4.8325C3.58239 74.8904 2.57018 73.8782 2.57018 72.6281C2.57018 71.378 3.58239 70.3658 4.8325 70.3658H50.7692C59.1561 70.3658 65.9804 63.7001 65.9804 55.5044C65.9804 47.3088 59.1561 40.6431 50.7692 40.6431H19.8384C8.90001 40.6477 0 31.953 0 21.2664V20.9772C0 10.2954 8.90001 1.60059 19.8384 1.60059H63.6761C64.9262 1.60059 65.9384 2.6128 65.9384 3.8629C65.9384 5.11301 64.9262 6.12522 63.6761 6.12522H19.8384C11.4515 6.12522 4.62726 12.7909 4.62726 20.9866V21.2758C4.62726 29.4714 11.4515 36.1371 19.8384 36.1371H50.7646C61.703 36.1371 70.603 44.8319 70.603 55.5184C70.603 66.205 61.703 74.8997 50.7646 74.8997L50.7692 74.8904Z" fill="#111111"/>
<path d="M318.162 74.89H272.225C270.975 74.89 269.962 73.8777 269.962 72.6276C269.962 71.3775 270.975 70.3653 272.225 70.3653H318.162C326.548 70.3653 333.373 63.6996 333.373 55.504C333.373 47.3083 326.548 40.6426 318.162 40.6426H287.235C276.297 40.6426 267.397 31.9479 267.397 21.2613V20.9721C267.397 10.2856 276.297 1.59082 287.235 1.59082H331.073C332.323 1.59082 333.335 2.60303 333.335 3.85314C333.335 5.10325 332.323 6.11546 331.073 6.11546H287.235C278.849 6.11546 272.024 12.7811 272.024 20.9768V21.266C272.024 29.4617 278.849 36.1273 287.235 36.1273H318.162C329.1 36.1273 338 44.8221 338 55.5086C338 66.1952 329.1 74.89 318.162 74.89Z" fill="#111111"/>
</svg>
